<svg xmlns="http://www.w3.org/2000/svg" width="65" height="65" viewBox="0 0 24 24" fill="#000000"><g fill="none" stroke="#000000" stroke-linecap="round" stroke-linejoin="round" stroke-width="1.5" color="currentColor"><path d="M2.5 12c0-4.478 0-6.718 1.391-8.109S7.521 2.5 12 2.5c4.478 0 6.718 0 8.109 1.391S21.5 7.521 21.5 12c0 4.478 0 6.718-1.391 8.109S16.479 21.5 12 21.5c-4.478 0-6.718 0-8.109-1.391S2.5 16.479 2.5 12m0-3h19M7 6h.009M11 6h.009"/><path d="M17 17a5 5 0 0 0-10 0m5.707-1.707l-1.414 1.414"/></g></svg>